<svg width="96" height="96" xmlns="http://www.w3.org/2000/svg" xmlns:xlink="http://www.w3.org/1999/xlink" xml:space="preserve" overflow="hidden"><g transform="translate(-699 -197)"><path d="M726 264.5C726 268.366 722.866 271.5 719 271.5 715.134 271.5 712 268.366 712 264.5 712 260.634 715.134 257.5 719 257.5 722.866 257.5 726 260.634 726 264.5Z" fill="#E97132"/><path d="M784 264.5C784 268.366 780.866 271.5 777 271.5 773.134 271.5 770 268.366 770 264.5 770 260.634 773.134 257.5 777 257.5 780.866 257.5 784 260.634 784 264.5Z" fill="#E97132"/><path d="M767 242.5 767 232.5 773 232.5C774.8 232.5 776.4 233.7 776.8 235.4L778.8 242.3C778.8 242.4 778.9 242.4 778.9 242.5L767 242.5ZM789.4 247.3 784.1 243.3C783.4 242.8 782.9 242 782.7 241.2L780.7 234.3C779.7 230.9 776.6 228.5 773 228.5L763 228.5 763 242.5 763 248.5 763 264.5 767 264.5C767 259 771.5 254.5 777 254.5 782.5 254.5 787 259 787 264.5 789.2 264.5 791 262.7 791 260.5L791 250.5C791 249.2 790.4 248.1 789.4 247.3Z" fill="#E97132"/><path d="M703 264.5 709 264.5C709 259 713.5 254.5 719 254.5 724.5 254.5 729 259 729 264.5L759 264.5 759 250.5 703 250.5 703 264.5Z" fill="#E97132"/><path d="M767 224.5 767 218.5 751 218.5 747 222.5 712 222.5 703 222.5 703 237.5 712 246.5 759 246.5 759 228.5 763 224.5Z" fill="#E97132"/></g></svg>